HIERARCHY
ROOT hip
{
	OFFSET 0.000000 0.000000 0.000000 
	CHANNELS 6 Xposition Yposition Zposition Xrotation Zrotation Yrotation
	JOINT abdomen
	{
		OFFSET 0.000000 3.402643 0.000000 
		CHANNELS 3 Xrotation Zrotation Yrotation
		JOINT chest
		{
			OFFSET 0.000000 8.438565 -0.680529 
			CHANNELS 3 Xrotation Zrotation Yrotation
			JOINT neck
			{
				OFFSET 0.000000 10.207942 -0.272212 
				CHANNELS 3 Xrotation Zrotation Yrotation
				JOINT head
				{
					OFFSET 0.000000 3.130431 0.000000 
					CHANNELS 3 Xrotation Zrotation Yrotation
					End Site
					{
						OFFSET 0.000000 3.130435 0.000000 
					}
				}
			}
			JOINT lCollar
			{
				OFFSET 3.470700 6.669187 -0.816635 
				CHANNELS 3 Yrotation Zrotation Xrotation
				JOINT lShldr
				{
					OFFSET 3.198488 0.000000 0.000000 
					CHANNELS 3 Zrotation Yrotation Xrotation
					JOINT lForeArm
					{
						OFFSET 10.139888 0.000000 0.000000 
						CHANNELS 3 Yrotation Zrotation Xrotation
						JOINT lHand
						{
							OFFSET 8.370511 0.000000 0.000000 
							CHANNELS 3 Zrotation Yrotation Xrotation
							End Site
							{
								OFFSET 4.083176 0.000000 0.000000 
							}
						}
					}
				}
			}
			JOINT rCollar
			{
				OFFSET -3.470700 6.669187 -0.816635 
				CHANNELS 3 Yrotation Zrotation Xrotation
				JOINT rShldr
				{
					OFFSET -3.198488 0.000000 0.000000 
					CHANNELS 3 Zrotation Yrotation Xrotation
					JOINT rForeArm
					{
						OFFSET -10.139888 0.000000 0.000000 
						CHANNELS 3 Yrotation Zrotation Xrotation
						JOINT rHand
						{
							OFFSET -8.370511 0.000000 0.000000 
							CHANNELS 3 Zrotation Yrotation Xrotation
							End Site
							{
								OFFSET -4.083176 0.000000 0.000000 
							}
						}
					}
				}
			}
		}
	}
	JOINT lThigh
	{
		OFFSET 5.308129 -1.633274 1.361059 
		CHANNELS 3 Xrotation Zrotation Yrotation
		JOINT lShin
		{
			OFFSET -2.041588 -20.007561 0.000000 
			CHANNELS 3 Xrotation Zrotation Yrotation
			JOINT lFoot
			{
				OFFSET 0.000000 -19.190928 -1.224953 
				CHANNELS 3 Xrotation Yrotation Zrotation
				End Site
				{
					OFFSET 0.000000 -2.449906 4.627600 
				}
			}
		}
	}
	JOINT rThigh
	{
		OFFSET -5.308129 -1.633274 1.361059 
		CHANNELS 3 Xrotation Zrotation Yrotation
		JOINT rShin
		{
			OFFSET 2.041588 -20.007561 0.000000 
			CHANNELS 3 Xrotation Zrotation Yrotation
			JOINT rFoot
			{
				OFFSET 0.000000 -19.190928 -1.224953 
				CHANNELS 3 Xrotation Yrotation Zrotation
				End Site
				{
					OFFSET 0.000000 -2.449906 4.627600 
				}
			}
		}
	}
}
MOTION
Frames: 6
Frame Time: 0.011111
28.549271 53.906322 99.894630 -174.345490 174.074173 -0.384829 30.859924 3.864190 3.471197 -25.986530 3.706981 0.621901 -11.664045 -5.830425 -2.870254 20.184711 9.724591 -6.096165 2.971642 -4.490881 1.927035 -74.401268 -21.384024 37.409706 -68.655708 9.291835 16.431231 8.524705 12.647240 -39.788467 -4.704987 0.510038 2.448925 72.328735 24.681885 24.815376 56.596828 -8.911777 10.914358 -8.534408 -12.637552 60.345562 -1.338345 15.634696 3.059591 21.457172 -5.733948 -3.706479 -15.352254 -1.266965 -3.327733 1.452052 -4.035623 -0.366825 22.804850 5.661916 3.863737 -17.107803 -4.791110 1.517667 
28.553040 53.960377 99.867294 -174.672119 174.304886 -0.705118 30.757380 3.501273 3.493585 -26.055138 3.780169 0.648304 -12.143940 -5.824921 -2.822699 20.461836 9.659758 -6.028281 2.971642 -4.490881 1.927035 -74.199287 -21.565386 38.256626 -69.350533 9.224501 16.764568 8.524705 12.647240 -40.550182 -4.704987 0.510038 2.448925 72.229271 25.176022 25.075394 57.211391 -8.988525 11.175377 -8.534408 -12.637552 60.199081 -1.289352 15.345059 3.056952 20.936405 -5.752817 -3.652264 -15.149619 -0.934345 -3.253493 1.054946 -4.304797 -0.174887 22.774132 5.660057 3.889986 -17.115643 -4.696389 1.526099 
28.553984 53.978603 99.842155 -174.910110 174.557510 -0.897598 30.744379 3.162301 3.529482 -26.074572 3.757007 0.698936 -12.367456 -5.726466 -2.846646 20.273712 9.573588 -6.059001 2.971642 -4.490881 1.927035 -73.853912 -21.906916 39.261490 -69.887688 9.168387 17.031351 8.524705 12.647240 -41.145885 -4.704987 0.510038 2.448925 72.206558 25.773832 25.153492 57.742821 -9.055117 11.411764 -8.534408 -12.637552 60.355328 -1.201463 15.083409 3.127388 20.549606 -5.763196 -3.580799 -15.104313 -0.831388 -3.208026 0.741457 -4.571808 -0.095214 22.784670 5.658065 3.890429 -17.143154 -4.604034 1.543640 
28.543303 53.986145 99.827072 -175.098038 174.726440 -1.038106 30.748384 3.006163 3.537266 -26.005926 3.699101 0.719899 -12.217597 -5.608816 -2.859688 19.455938 9.249010 -6.082600 2.971642 -4.490881 1.927035 -73.617157 -22.245461 40.038914 -70.433266 9.101656 17.290649 8.524705 12.647240 -41.936905 -4.704987 0.510038 2.448925 72.128494 26.442934 25.340702 58.179188 -9.107018 11.605653 -8.534408 -12.637552 60.531109 -1.113416 14.867061 2.972375 20.211971 -5.773852 -3.541927 -15.170120 -0.594535 -3.147563 0.438938 -4.778304 -0.089095 22.865116 5.658412 3.897511 -17.034891 -4.551198 1.588424 
28.527269 53.993378 99.816689 -175.265945 174.882782 -1.095407 30.823629 2.907891 3.486161 -25.917881 3.707694 0.725085 -12.451746 -5.586383 -2.816853 19.072136 8.925239 -6.025080 2.971642 -4.490881 1.927035 -73.434700 -22.738832 40.739746 -70.978104 9.029763 17.560030 8.524705 12.647240 -42.640022 -4.704987 0.510038 2.448925 71.943146 27.156599 25.718391 58.603008 -9.147655 11.791143 -8.534408 -12.637552 60.794777 -1.113478 14.692427 2.942853 19.946079 -5.782976 -3.490411 -15.223892 -0.447378 -3.112955 0.146777 -4.998193 -0.152134 22.935127 5.658964 3.913469 -16.919592 -4.474474 1.613744 
28.524757 54.004063 99.794380 -175.394653 175.071732 -1.102113 30.964003 2.702204 3.431753 -25.917921 3.727098 0.722856 -13.040264 -5.618180 -2.770432 19.345535 8.758758 -5.991322 2.971642 -4.490881 1.927035 -73.184776 -23.292601 41.403336 -71.386330 8.973019 17.772848 8.524705 12.647240 -43.089241 -4.704987 0.510038 2.448925 71.906319 27.833385 25.688328 58.965862 -9.187644 11.953281 -8.534408 -12.637552 60.833843 -1.103530 14.528306 3.191376 19.762470 -5.783450 -3.483456 -15.262092 -0.553672 -3.148976 -0.097221 -5.200447 -0.220769 23.047773 5.650375 3.922507 -16.922890 -4.461069 1.632479 
